PathFileType	4	(X/Y/Z)	 s07c0202.trc
DataRate	CameraRate	NumFrames	NumMarkers	Units	OrigDataRate	OrigDataStartFrame	OrigNumFrames
200	200	7	48	mm	200	1001	2000
Frame#	Time	racr			lacr			c7			jug			rlel			rdr			llel			ldr			s2			lic			ric			lasi			rasi			rpsi			lpsi			rgt			lgt			rth1			rth2			rth3			rth4			rlfc			rmfc			rsh1			rsh2			rsh3			rsh4			rlmal			rcal			rtoe			rmt5			lth1			lth2			lth4			lth3			llfc			lmfc			lsh1			lsh2			lsh3			lsh4			llmal			lcal			ltoe			lmt5			SBIKE			LBIKE			RBIKE			
		X1	Y1	Z1	X2	Y2	Z2	X3	Y3	Z3	X4	Y4	Z4	X5	Y5	Z5	X6	Y6	Z6	X7	Y7	Z7	X8	Y8	Z8	X9	Y9	Z9	X10	Y10	Z10	X11	Y11	Z11	X12	Y12	Z12	X13	Y13	Z13	X14	Y14	Z14	X15	Y15	Z15	X16	Y16	Z16	X17	Y17	Z17	X18	Y18	Z18	X19	Y19	Z19	X20	Y20	Z20	X21	Y21	Z21	X22	Y22	Z22	X23	Y23	Z23	X24	Y24	Z24	X25	Y25	Z25	X26	Y26	Z26	X27	Y27	Z27	X28	Y28	Z28	X29	Y29	Z29	X30	Y30	Z30	X31	Y31	Z31	X32	Y32	Z32	X33	Y33	Z33	X34	Y34	Z34	X35	Y35	Z35	X36	Y36	Z36	X37	Y37	Z37	X38	Y38	Z38	X39	Y39	Z39	X40	Y40	Z40	X41	Y41	Z41	X42	Y42	Z42	X43	Y43	Z43	X44	Y44	Z44	X45	Y45	Z45	X46	Y46	Z46	X47	Y47	Z47	X48	Y48	Z48	
1001	5.0050	471.833050	1435.453699	-72.373295	454.939896	1460.093692	-366.343809	422.491770	1514.766152	-213.017378	396.879555	1366.061107	-226.787447	471.660593	1113.373194	89.272589	688.028191	945.333841	-20.944257	484.749649	1144.281991	-520.112726	692.549676	939.736139	-426.952358	-112.592340	1200.330869	-232.658093	29.391970	1282.086196	-376.213883	56.438170	1248.869677	-86.609505	68.062386	1203.455731	-363.124384	78.856802	1206.141030	-112.751815	-87.499550	1238.655320	-181.309215	-84.180240	1257.265640	-287.391115	26.057477	1127.943334	-50.034265	-12.805312	1114.133487	-411.000383	170.625745	1076.406054	-57.191010	255.897190	1058.005094	-70.668521	322.995725	1005.426280	-67.518146	267.442069	1088.623151	-87.441765	426.527220	915.819729	-104.330377	413.673963	900.121674	-209.871530	333.744667	812.489720	-78.330615	291.073809	735.990162	-89.857181	217.493287	689.235324	-82.557246	304.337344	724.227899	-127.582136	122.293495	596.173102	-76.887290	56.341103	628.577254	-110.667275	171.699684	363.708995	-123.314950	108.978942	419.412552	-53.444789	45.854419	1000.734693	-424.662079	108.969830	939.265564	-431.425479	140.497663	957.775851	-427.653918	134.060534	854.112265	-425.715848	223.928011	704.656778	-399.091876	218.518523	684.141587	-308.373311	196.361992	560.407653	-422.204202	208.073823	477.529820	-402.587924	176.586058	392.420461	-406.659561	210.797758	480.794755	-360.304777	153.118924	256.843701	-400.610096	89.282819	209.310010	-367.224858	378.421722	231.887601	-356.952502	307.091532	188.447867	-419.661761	-258.660486	971.029758	-234.835095	-75.828399	83.394837	-438.515107	-82.838255	79.848762	-40.930079	
1002	5.0100	468.820358	1437.952689	-69.329721	457.416629	1459.697451	-362.806528	423.447622	1515.717995	-211.019347	395.948104	1366.962061	-223.708984	469.622595	1113.610894	88.437430	688.151513	946.224152	-20.527804	487.060303	1145.084162	-520.790520	694.716775	940.349015	-427.849288	-111.317265	1200.530345	-235.387563	32.012420	1280.811954	-379.172325	55.426068	1251.474334	-88.554859	70.231312	1202.087384	-365.015250	79.094319	1207.941015	-114.759277	-86.721382	1239.356490	-184.411803	-82.639531	1256.933817	-290.795984	26.975609	1131.118669	-51.285099	-11.649924	1113.115381	-412.050101	172.153686	1082.114851	-58.347981	257.935596	1065.149247	-71.578604	325.830853	1013.732877	-68.601009	268.797526	1095.554763	-89.412018	430.796908	925.495846	-105.467278	418.021317	909.049268	-211.021318	339.169126	821.155900	-79.235642	296.350121	744.978732	-90.867587	222.760131	698.053348	-83.603923	309.335055	733.414929	-128.931639	127.208643	604.442308	-77.740584	60.271601	635.019872	-111.195334	181.644457	373.175650	-123.571578	118.038187	427.417305	-53.630331	44.131314	998.665439	-426.078729	105.440582	935.530317	-433.475025	137.558921	953.147878	-429.826738	128.342549	849.702629	-427.509190	215.489014	699.244104	-400.348402	210.354628	678.882891	-309.582237	187.811249	554.954483	-423.148963	199.798443	472.143072	-403.493786	168.343447	387.019086	-407.166341	202.962836	475.406992	-361.203490	145.463040	251.463618	-400.533520	81.355292	204.666746	-367.117665	370.821771	224.352564	-357.233324	298.954813	178.187929	-413.960731	-258.659577	971.089765	-235.154587	-75.824490	83.386746	-438.532467	-82.840712	79.930820	-40.937194	
1003	5.0150	465.692007	1440.612453	-66.179212	459.887966	1459.163590	-359.053877	424.545681	1516.202617	-208.872653	395.398939	1367.618085	-220.922862	468.386086	1114.295186	87.348692	688.270010	947.221746	-20.287258	489.204734	1145.996123	-521.696301	696.729778	940.906639	-428.953823	-110.105886	1200.667412	-237.969271	34.571394	1279.461586	-382.097752	54.598141	1253.806969	-91.700782	72.260081	1200.735398	-366.844546	79.285869	1209.682225	-116.745649	-86.116639	1240.302761	-187.218597	-81.670238	1257.089259	-294.193381	27.863641	1134.267364	-52.359039	-10.619325	1111.920656	-413.137928	173.515386	1087.789792	-59.377645	259.442686	1072.197224	-72.759747	328.216400	1021.607135	-70.092117	270.410231	1101.804713	-91.806175	434.555962	934.525028	-106.455324	422.081172	917.923141	-212.177734	344.262390	829.732386	-80.207221	301.357786	753.621502	-92.186839	227.841941	706.611945	-84.634989	314.174138	742.162442	-130.243686	132.085059	612.108529	-78.516784	64.173733	640.771465	-111.667904	192.100186	382.367142	-123.958505	127.354922	435.059565	-53.916355	42.494450	996.854940	-427.431940	102.123462	932.364936	-436.096195	134.749578	949.059251	-431.830819	122.933672	845.772618	-429.420501	207.570480	694.353827	-401.416387	202.513466	674.479519	-310.433756	179.627531	550.194670	-423.898296	191.669926	467.378078	-404.237687	160.122788	382.353697	-407.563075	195.307927	470.639028	-361.998099	137.598989	246.761713	-400.576427	73.053222	200.828037	-367.124948	362.404981	216.462380	-356.885122	287.734414	178.564224	-424.127502	-258.657666	971.080754	-235.373610	-75.811744	83.390580	-438.557734	-82.855333	80.009702	-40.927828	
1004	5.0200	462.449145	1443.323221	-62.913433	462.453952	1458.546289	-355.654288	425.658482	1516.482251	-206.829929	394.802728	1368.160827	-218.187854	467.279639	1115.231637	86.034754	688.388810	948.184717	-19.869039	491.129314	1146.921072	-522.611801	698.359365	941.379849	-430.061314	-109.101079	1200.786533	-240.456607	37.000664	1278.124568	-384.911682	53.624153	1255.761072	-92.653354	74.193805	1199.496693	-368.571200	79.323619	1211.310585	-118.669187	-85.715790	1240.973111	-190.100378	-80.555376	1256.704597	-297.607206	28.691999	1137.282183	-53.471098	-9.466124	1110.839255	-414.232952	174.751547	1092.960311	-60.147169	260.776220	1078.858867	-73.681735	330.398958	1029.387668	-71.391806	271.241846	1108.324307	-93.453923	437.970126	943.425214	-107.421959	425.420141	926.315107	-213.669713	348.970805	837.735786	-81.791135	306.296256	761.969150	-93.269283	232.887498	714.743483	-85.700385	319.033711	750.712843	-131.435821	136.782636	619.304113	-79.352792	68.123504	645.789934	-112.055364	204.467017	392.091238	-122.645255	136.835999	442.066260	-54.235131	40.960725	995.316775	-428.767411	98.980484	929.506152	-437.948184	132.089810	945.380044	-433.671426	117.860436	842.414518	-431.261385	200.201115	689.894896	-401.941075	195.548377	670.444473	-310.757389	171.977753	546.044441	-424.341886	183.911261	463.191153	-404.641698	152.147206	378.210148	-407.785860	187.813147	466.453755	-362.404077	129.390107	243.006724	-400.908099	64.453358	197.582216	-367.082319	353.744266	210.037721	-356.932760	278.823854	172.873991	-424.182866	-258.655996	971.083176	-235.488583	-75.808849	83.387664	-438.566741	-82.838854	80.013069	-40.934127	
1005	5.0250	459.143833	1446.170541	-59.626780	465.154487	1457.738983	-352.280818	426.447624	1516.441890	-204.776920	394.310277	1368.339717	-215.278067	466.228591	1116.347220	84.625527	688.401412	949.058830	-19.438227	492.877756	1147.747221	-523.570338	699.460790	941.825628	-431.026287	-108.245797	1200.856907	-242.816395	39.281754	1276.856667	-387.622913	52.713402	1257.539992	-94.607870	75.957912	1198.328239	-370.179229	79.254077	1212.810469	-120.559173	-85.461023	1241.629261	-192.809559	-79.576860	1256.285697	-300.261263	29.346517	1140.196158	-54.639800	-8.399540	1109.689262	-415.343221	175.535507	1098.094676	-61.211381	261.898153	1084.989134	-74.993119	332.196830	1036.741865	-72.350659	271.733765	1114.605694	-94.950177	441.519367	952.556194	-109.208020	428.699474	934.328428	-215.465823	353.790532	846.498881	-81.861488	311.141662	769.990186	-94.305515	237.822131	722.490556	-86.695715	323.657125	758.906198	-132.728570	141.383398	625.955560	-80.019563	72.187548	650.040506	-112.332662	213.981553	399.420525	-124.135022	146.514825	448.557048	-54.445589	39.556152	994.061390	-429.984956	96.149327	927.047957	-439.753208	129.649205	942.248086	-435.248166	113.179202	839.574300	-432.935725	193.570066	685.959518	-402.217452	188.319850	666.529769	-311.445914	164.955536	542.513335	-424.323120	176.446746	459.643813	-404.712729	144.279926	374.808528	-407.858492	180.423556	462.864010	-362.469623	120.900439	239.440833	-400.553573	55.648126	194.997753	-367.243901	345.085561	203.971401	-356.931044	269.783317	167.761596	-424.199440	-258.671165	971.118161	-235.591726	-75.805209	83.397691	-438.579704	-82.869920	80.048045	-40.944300	
1006	5.0300	455.747096	1448.985055	-56.277348	467.952589	1456.680602	-348.790554	426.658764	1516.288529	-202.461979	393.729694	1368.092327	-212.400638	465.204312	1117.703898	83.204965	688.501331	950.010780	-18.939346	494.457993	1148.758245	-524.709516	700.144575	942.297817	-431.756695	-108.111648	1201.226223	-245.121485	41.348563	1275.604595	-390.320092	51.751419	1259.200995	-96.450936	77.603301	1197.268885	-371.673871	79.030326	1214.198156	-122.407413	-85.366837	1242.216495	-195.452841	-78.583542	1255.998011	-303.325135	29.999399	1142.890453	-55.690440	-7.455731	1108.838564	-416.347822	176.071111	1102.815432	-62.341071	262.531206	1091.015821	-76.164847	333.398672	1044.231738	-72.895120	271.827215	1120.586184	-96.416811	443.948987	961.102328	-109.901236	431.792754	942.806277	-216.355649	357.765393	853.995852	-83.485576	315.720022	777.436488	-95.163935	242.733820	729.670046	-87.678500	328.172058	766.383177	-133.995602	146.070142	631.692786	-80.524683	76.417236	653.497391	-112.479814	225.847589	407.977387	-122.975534	156.389331	454.290473	-54.619702	38.353146	992.993966	-431.137216	93.640481	924.950004	-441.270115	127.464317	939.598970	-436.648770	109.072966	837.133492	-434.507934	187.631877	682.697684	-402.118566	182.493636	663.587415	-310.729810	158.518944	539.611837	-423.960698	169.389207	456.574102	-404.364637	136.693878	372.084000	-407.710572	173.187528	459.880317	-362.027630	112.323609	237.108697	-400.956807	46.637854	193.301928	-367.207951	336.176339	198.321964	-356.964201	260.320452	163.297131	-424.214160	-258.706825	971.125077	-235.599910	-75.815759	83.397087	-438.568403	-82.867456	80.059312	-40.937626	
1007	5.0350	452.734463	1452.500725	-52.191279	470.712009	1455.261473	-345.138127	426.754361	1515.827939	-200.558822	393.174445	1367.535180	-209.577526	464.293262	1119.065569	81.839498	688.394526	950.660261	-18.759871	495.937143	1149.529164	-525.952556	700.187217	942.289386	-432.290705	-107.709531	1201.418469	-247.432767	43.271768	1274.342551	-393.001832	50.733421	1260.755250	-98.244148	79.055044	1196.352276	-373.128900	78.572001	1215.502051	-124.093598	-85.591033	1242.969118	-197.946215	-76.911345	1255.514479	-306.357991	29.995411	1145.510899	-56.869776	-6.512281	1107.950975	-417.363254	176.105755	1107.160828	-63.527088	262.683064	1096.554731	-77.179886	334.392382	1050.995698	-73.843109	271.839512	1126.163534	-98.196743	446.154506	969.355909	-111.025755	434.052297	950.532155	-217.570779	361.488171	861.613496	-84.546340	320.130337	784.527497	-96.169201	247.515240	736.098923	-88.460626	332.623520	773.541748	-134.681034	151.110985	636.236591	-80.816240	80.837629	656.139243	-112.486620	236.729205	414.177795	-124.065103	166.594809	459.253071	-54.716688	37.347817	992.116174	-432.253474	91.518916	923.177271	-442.650657	125.633684	937.322419	-437.912792	105.598812	835.110313	-435.824648	182.634887	679.969208	-401.854123	177.071368	660.949913	-310.250204	152.514042	537.363614	-423.626702	162.712449	454.271758	-403.958129	129.323506	369.959951	-407.360370	166.424498	457.418614	-361.596393	103.740384	234.981029	-400.487346	37.384912	192.248220	-367.096224	326.959729	193.454427	-356.943753	250.558193	159.476660	-424.194500	-258.769884	971.118390	-235.619949	-75.817817	83.398385	-438.562243	-82.871704	80.077771	-40.939760	
